<?xml version="1.0" encoding="UTF-8" standalone="no"?>
<!-- Created with Inkscape (http://www.inkscape.org/) -->

<svg
   xmlns:dc="http://purl.org/dc/elements/1.1/"
   xmlns:cc="http://creativecommons.org/ns#"
   xmlns:rdf="http://www.w3.org/1999/02/22-rdf-syntax-ns#"
   xmlns:svg="http://www.w3.org/2000/svg"
   xmlns="http://www.w3.org/2000/svg"
   xmlns:sodipodi="http://sodipodi.sourceforge.net/DTD/sodipodi-0.dtd"
   xmlns:inkscape="http://www.inkscape.org/namespaces/inkscape"
   width="297mm"
   height="210mm"
   id="svg3065"
   version="1.1"
   inkscape:version="0.48.5 r10040"
   sodipodi:docname="New document 2">
  <defs
     id="defs3067" />
  <sodipodi:namedview
     inkscape:document-units="mm"
     pagecolor="#ffffff"
     bordercolor="#666666"
     borderopacity="1.0"
     inkscape:pageopacity="0.0"
     inkscape:pageshadow="2"
     inkscape:zoom="0.43415836"
     inkscape:cx="490"
     inkscape:cy="380"
     inkscape:current-layer="layer1"
     id="namedview3069"
     showgrid="false"
     inkscape:window-width="1313"
     inkscape:window-height="750"
     inkscape:window-x="2"
     inkscape:window-y="117"
     inkscape:window-maximized="0" />
  <metadata
     id="metadata3071">
    <rdf:RDF>
      <cc:Work
         rdf:about="">
        <dc:format>image/svg+xml</dc:format>
        <dc:type
           rdf:resource="http://purl.org/dc/dcmitype/StillImage" />
        <dc:title></dc:title>
      </cc:Work>
    </rdf:RDF>
  </metadata>
  <g
     inkscape:label="Layer 1"
     inkscape:groupmode="layer"
     id="layer1">
    <rect
       y="167.76952"
       x="26.900183"
       height="389.99451"
       width="978.77258"
       id="rect3250-1-5"
       style="fill:#ffffff;fill-opacity:1;stroke:#ffffff;stroke-width:21.17745209" />
    <g
       transform="matrix(9.7918178,0,0,9.5653759,-2549.9976,-3439.3322)"
       id="g3348-4-41-6">
      <path
         style="fill:#554400;stroke:#000000;stroke-width:0.56777072px;stroke-linecap:butt;stroke-linejoin:miter;stroke-opacity:1"
         d="m 284.06474,405.14386 c -7.88608,3.15446 -10.75377,1.57722 -10.75377,1.57722 l 1.72062,-4.15813 c 0,0 6.73901,1.57725 8.02948,0.28678 1.29044,-1.29045 1.00367,2.29413 1.00367,2.29413 z"
         id="path3021-3-8-9-2-0-3-8"
         inkscape:connector-curvature="0" />
      <path
         style="fill:#ffffff;stroke:#000000;stroke-width:0.56777072px;stroke-linecap:butt;stroke-linejoin:miter;stroke-opacity:1"
         d="m 275.03159,414.57296 c 0,0 5.30519,-30.54072 7.88608,-14.62513 2.58091,15.9156 7.88611,11.61409 7.88611,11.61409 0,0 -4.01473,-41.15114 -12.90453,-29.2503 -8.88978,11.90087 -9.89348,31.97459 -9.89348,31.97459 z"
         id="path3019-6-3-0-3-3-36-9"
         inkscape:connector-curvature="0" />
      <g
         id="flowRoot3294-1-3-6-8"
         style="font-size:12px;font-style:normal;font-weight:normal;line-height:125%;letter-spacing:0px;word-spacing:0px;fill:#504416;fill-opacity:1;stroke:#ffffff;font-family:Sans"
         transform="translate(62.670528,350.65856)">
        <path
           inkscape:connector-curvature="0"
           id="path3393-4-7"
           style="font-size:20px;font-variant:normal;font-weight:bold;font-stretch:normal;fill:#504416;stroke:#ffffff;font-family:Nimbus Sans L;-inkscape-font-specification:Nimbus Sans L Bold"
           d="m 236.6625,57.406882 2.8,0 0,-14.58 -2.8,0 0,5.18 c -0.7,-1.079999 -1.64,-1.58 -2.98,-1.58 -2.58,0 -4.54,2.480003 -4.54,5.74 0,1.459998 0.44,2.940001 1.16,3.98 0.74,1.039999 2.06,1.72 3.38,1.72 1.34,0 2.28,-0.500001 2.98,-1.56 l 0,1.1 m -2.36,-8.64 c 1.42,0 2.36,1.380002 2.36,3.44 0,1.959998 -0.96,3.32 -2.36,3.32 -1.4,0 -2.36,-1.380002 -2.36,-3.36 0,-1.999998 0.96,-3.4 2.36,-3.4" />
        <path
           inkscape:connector-curvature="0"
           id="path3395-5-4"
           style="font-size:20px;font-variant:normal;font-weight:bold;font-stretch:normal;fill:#504416;stroke:#ffffff;font-family:Nimbus Sans L;-inkscape-font-specification:Nimbus Sans L Bold"
           d="m 251.26906,57.066882 c -0.5,-0.46 -0.64,-0.760001 -0.64,-1.32 l 0,-6 c 0,-2.199998 -1.5,-3.32 -4.42,-3.32 -2.91999,0 -4.44,1.240002 -4.62,3.74 l 2.7,0 c 0.14,-1.119999 0.6,-1.48 1.98,-1.48 1.08,0 1.62,0.360001 1.62,1.08 0,0.359999 -0.18,0.68 -0.48,0.84 -0.38,0.2 -0.38,0.2 -1.76,0.42 l -1.12,0.2 c -2.14,0.359999 -3.18,1.460002 -3.18,3.4 0,0.919999 0.26,1.68 0.76,2.22 0.62,0.639999 1.56,1.02 2.52,1.02 1.2,0 2.3,-0.520001 3.28,-1.54 0,0.559999 0.06,0.76 0.32,1.08 l 3.04,0 0,-0.34 m -3.38,-4 c 0,1.619998 -0.8,2.54 -2.22,2.54 -0.94,0 -1.52,-0.500001 -1.52,-1.3 0,-0.839999 0.44,-1.24 1.6,-1.48 l 0.96,-0.18 c 0.74,-0.14 0.86,-0.18 1.18,-0.34 l 0,0.76" />
        <path
           inkscape:connector-curvature="0"
           id="path3397-8-4"
           style="font-size:20px;font-variant:normal;font-weight:bold;font-stretch:normal;fill:#504416;stroke:#ffffff;font-family:Nimbus Sans L;-inkscape-font-specification:Nimbus Sans L Bold"
           d="m 260.08188,46.606882 0,1.66 c -0.84,-1.279999 -1.76001,-1.84 -3,-1.84 -2.56,0 -4.48001,2.500003 -4.48001,5.84 0,3.359996 1.76001,5.6 4.42001,5.6 1.25999,0 2.02,-0.380001 3.06,-1.56 l 0,1.46 c 0,1.299999 -0.98001,2.2 -2.38001,2.2 -1.05999,0 -1.76,-0.440001 -1.98,-1.26 l -2.9,0 c 0.02,0.839999 0.34001,1.42 1.06,2.02 0.86,0.699999 2.06001,1.04 3.72,1.04 3.26,0 5.14,-1.460003 5.14,-4 l 0,-11.16 -2.65999,0 m -2.40001,2.16 c 1.4,0 2.44,1.460002 2.44,3.46 0,1.959998 -1.02,3.3 -2.47999,3.3 -1.32,0 -2.24001,-1.340002 -2.24001,-3.3 0,-2.039998 0.92001,-3.46 2.28,-3.46" />
        <path
           inkscape:connector-curvature="0"
           id="path3399-6-1"
           style="font-size:20px;font-variant:normal;font-weight:bold;font-stretch:normal;fill:#504416;stroke:#ffffff;font-family:Nimbus Sans L;-inkscape-font-specification:Nimbus Sans L Bold"
           d="m 268.28844,46.606882 -2.8,0 0,10.8 2.8,0 0,-10.8 m 0,-3.78 -2.8,0 0,2.5 2.8,0 0,-2.5" />
        <path
           inkscape:connector-curvature="0"
           id="path3401-7-6"
           style="font-size:20px;font-variant:normal;font-weight:bold;font-stretch:normal;fill:#504416;stroke:#ffffff;font-family:Nimbus Sans L;-inkscape-font-specification:Nimbus Sans L Bold"
           d="m 275.71531,46.426882 c -3.29999,0 -5.32,2.180003 -5.32,5.72 0,3.559996 2.02001,5.72 5.34,5.72 3.28,0 5.34,-2.180004 5.34,-5.64 0,-3.659997 -1.98,-5.8 -5.36,-5.8 m 0.02,2.26 c 1.54,0 2.54,1.380002 2.54,3.5 0,2.019998 -1.04,3.42 -2.54,3.42 -1.52,0 -2.54,-1.400002 -2.54,-3.46 0,-2.059998 1.02,-3.46 2.54,-3.46" />
        <path
           inkscape:connector-curvature="0"
           id="path3403-3-8"
           style="font-size:20px;font-variant:normal;font-weight:bold;font-stretch:normal;fill:#504416;stroke:#ffffff;font-family:Nimbus Sans L;-inkscape-font-specification:Nimbus Sans L Bold"
           d="m 292.02188,50.086882 c -0.04,-2.279998 -1.80001,-3.66 -4.70001,-3.66 -2.73999,0 -4.44,1.380002 -4.44,3.6 0,0.719999 0.22001,1.34 0.6,1.76 0.38,0.379999 0.72001,0.56 1.76,0.9 l 3.34001,1.04 c 0.69999,0.22 0.94,0.44 0.94,0.88 0,0.659999 -0.78001,1.06 -2.08001,1.06 -0.71999,0 -1.3,-0.14 -1.65999,-0.38 -0.3,-0.22 -0.42001,-0.440001 -0.54001,-1.02 l -2.74,0 c 0.08,2.359997 1.82001,3.6 5.1,3.6 1.5,0 2.64001,-0.320001 3.44,-0.96 0.8,-0.64 1.28,-1.640001 1.28,-2.7 0,-1.399999 -0.7,-2.300001 -2.12,-2.72 l -3.54,-1.02 c -0.77999,-0.24 -0.98,-0.400001 -0.98,-0.84 0,-0.6 0.64001,-1 1.62,-1 1.34,0 2.00001,0.480001 2.02,1.46 l 2.70001,0" />
      </g>
    </g>
    <rect
       y="134.3401"
       x="21.962713"
       height="454.81082"
       width="1010.9892"
       id="rect3161-7-7-0"
       style="fill:#235796;fill-opacity:1;stroke:#ffcc00;stroke-width:12.43265247" />
    <path
       inkscape:connector-curvature="0"
       id="path3021-3-8-94-9-4"
       d="m 236.01541,436.24265 c -78.26029,31.3047 -106.71883,15.65211 -106.71883,15.65211 l 17.07483,-41.26448 c 0,0 66.87734,15.65211 79.68374,2.84568 12.80643,-12.80594 9.96026,22.76669 9.96026,22.76669 z"
       style="fill:#f0b500;fill-opacity:1;stroke:#000000;stroke-width:5.63449144px;stroke-linecap:butt;stroke-linejoin:miter;stroke-opacity:1" />
    <path
       inkscape:connector-curvature="0"
       id="path3019-6-3-9-51-0"
       d="m 146.37141,527.31082 c 0,0 52.64795,-303.08387 78.26078,-145.13884 25.61285,157.94431 78.26079,115.25711 78.26079,115.25711 0,0 -39.84152,-408.37929 -128.06303,-290.27697 C 86.608878,325.25539 76.648138,524.46418 76.648138,524.46418 z"
       style="fill:#ffffff;stroke:#000000;stroke-width:5.63449144px;stroke-linecap:butt;stroke-linejoin:miter;stroke-opacity:1" />
    <g
       id="flowRoot3033-7-2-1-2-1"
       style="font-size:12px;font-style:normal;font-weight:normal;line-height:125%;letter-spacing:0px;word-spacing:0px;fill:#ffffff;fill-opacity:1;stroke:none;font-family:Sans"
       transform="matrix(13.97338,0,0,13.97338,-656.57009,-343.20169)">
      <path
         inkscape:connector-curvature="0"
         id="path3042-3-1-0-9-3"
         style="font-size:20px;font-variant:normal;font-stretch:normal;fill:#ffffff;font-family:PakType Naqsh;-inkscape-font-specification:PakType Naqsh"
         d="m 75.787125,52.087643 0.584101,-7.222514 1.460078,0.11808 -1.180798,14.600769 -1.460077,-0.11808 0.102336,-1.265401 c -0.662758,0.926153 -1.656034,1.3357 -2.979831,1.228641 -1.090194,-0.08817 -1.942648,-0.571867 -2.557365,-1.451103 -0.614721,-0.879234 -0.866977,-2.000221 -0.756768,-3.362962 0.111256,-1.375712 0.541681,-2.457817 1.291276,-3.24632 0.749589,-0.788487 1.66948,-1.138652 2.759675,-1.050494 1.310818,0.106018 2.223275,0.695811 2.737373,1.769384 m -5.269845,2.650233 c -0.08502,1.051258 0.06546,1.896215 0.451432,2.534872 0.385969,0.638661 0.974798,0.990003 1.766487,1.054029 0.791682,0.06403 1.435805,-0.187605 1.932375,-0.754893 0.496556,-0.567285 0.787346,-1.376556 0.872371,-2.427814 0.08501,-1.05125 -0.07196,-1.896732 -0.4709,-2.536447 -0.398957,-0.639703 -0.994275,-0.99157 -1.785955,-1.055602 -0.765734,-0.06192 -1.396617,0.187516 -1.892651,0.748307 -0.496042,0.560804 -0.787094,1.373319 -0.873159,2.437548" />
      <path
         inkscape:connector-curvature="0"
         id="path3044-2-6-5-4-0"
         style="font-size:20px;font-variant:normal;font-stretch:normal;fill:#ffffff;font-family:PakType Naqsh;-inkscape-font-specification:PakType Naqsh"
         d="m 85.000178,51.739649 -0.0722,-1.34572 1.46274,-0.07847 0.468747,8.737436 -1.462739,0.07847 -0.06801,-1.267708 c -0.532787,1.006549 -1.462286,1.545398 -2.788498,1.616547 -1.092183,0.05859 -2.001724,-0.306616 -2.728629,-1.095631 -0.726906,-0.789013 -1.12698,-1.866131 -1.200221,-3.231359 -0.07394,-1.37822 0.207727,-2.508212 0.844998,-3.389978 0.637271,-0.881752 1.501996,-1.351928 2.594178,-1.410531 1.31321,-0.07044 2.296419,0.391873 2.94963,1.386945 m -4.867556,3.331952 c 0.0565,1.053176 0.318753,1.870378 0.786762,2.451607 0.468004,0.581233 1.098573,0.850574 1.891706,0.808023 0.793125,-0.04255 1.397759,-0.378156 1.813902,-1.006822 0.416131,-0.628662 0.595951,-1.46958 0.539457,-2.522757 -0.05651,-1.053167 -0.325264,-1.870019 -0.806267,-2.45056 -0.481014,-0.580526 -1.118083,-0.849518 -1.911209,-0.806976 -0.767129,0.04116 -1.358935,0.372822 -1.775419,0.994977 -0.416489,0.62217 -0.596133,1.466338 -0.538932,2.532508" />
      <path
         inkscape:connector-curvature="0"
         id="path3046-8-3-9-93-5"
         style="font-size:20px;font-variant:normal;font-stretch:normal;fill:#ffffff;font-family:PakType Naqsh;-inkscape-font-specification:PakType Naqsh"
         d="m 94.89773,55.265891 c 0.04468,-1.02767 -0.141682,-1.83731 -0.559078,-2.428923 -0.41741,-0.5916 -1.029375,-0.904937 -1.835899,-0.940014 -0.780517,-0.03393 -1.400967,0.222564 -1.861355,0.76948 -0.460393,0.546928 -0.713213,1.340731 -0.758461,2.381409 -0.04525,1.040687 0.130926,1.859659 0.528537,2.45692 0.397604,0.597264 0.999671,0.913429 1.806205,0.948497 0.806524,0.03507 1.443518,-0.227221 1.910986,-0.78687 0.467453,-0.559647 0.723808,-1.359813 0.769065,-2.400499 m 1.26917,4.532066 c -0.127274,2.92692 -1.569811,4.330423 -4.327615,4.210516 l -0.234153,-0.01018 C 90.96771,63.970571 90.361258,63.830162 89.785775,63.577065 89.210287,63.323958 88.756262,62.97513 88.423699,62.53058 l 1.114777,-0.909464 c 0.462647,0.749969 1.175287,1.145883 2.137923,1.187742 1.925258,0.08371 2.930028,-0.84357 3.014313,-2.781841 l 0.0789,-1.814691 c -0.616501,0.989779 -1.594686,1.455538 -2.93456,1.397279 -1.092722,-0.04751 -1.962737,-0.495885 -2.610048,-1.345118 -0.647316,-0.849232 -0.941843,-1.943787 -0.883583,-3.28367 0.05769,-1.326866 0.44272,-2.388615 1.155082,-3.185252 0.712358,-0.796622 1.621402,-1.170898 2.727132,-1.122828 1.300847,0.05657 2.234633,0.611981 2.801356,1.666232 l 0.05854,-1.346385 1.463461,0.06363 -0.380098,8.74174" />
      <path
         inkscape:connector-curvature="0"
         id="path3048-9-0-8-36-5"
         style="font-size:20px;font-variant:normal;font-stretch:normal;fill:#ffffff;stroke:none;font-family:PakType Naqsh;-inkscape-font-specification:PakType Naqsh"
         d="m 97.8125,50.52419 1.484375,0 0,8.75 -1.484375,0 0,-8.75 m 0.04883,-4.140625 c 0.188801,-0.1953 0.419921,-0.292956 0.693359,-0.292969 0.273436,1.3e-5 0.507811,0.09767 0.703125,0.292969 0.195311,0.195325 0.292967,0.4297 0.292969,0.703125 -2e-6,0.273449 -0.09766,0.504569 -0.292969,0.693359 -0.195314,0.188814 -0.429689,0.283215 -0.703125,0.283203 -0.273438,1.2e-5 -0.504558,-0.09439 -0.693359,-0.283203 -0.188803,-0.18879 -0.283204,-0.41991 -0.283203,-0.693359 -10e-7,-0.273425 0.0944,-0.5078 0.283203,-0.703125" />
      <path
         inkscape:connector-curvature="0"
         id="path3050-7-2-2-09-3"
         style="font-size:20px;font-variant:normal;font-stretch:normal;fill:#ffffff;font-family:PakType Naqsh;-inkscape-font-specification:PakType Naqsh"
         d="m 105.49805,50.465596 c 1.21093,9e-6 2.24283,0.445972 3.0957,1.337891 0.85286,0.891933 1.27929,1.982427 1.2793,3.271484 -1e-5,1.276045 -0.42644,2.353518 -1.2793,3.232422 -0.85287,0.878906 -1.88477,1.318359 -3.0957,1.318359 -1.22397,0 -2.26889,-0.436197 -3.13477,-1.308593 -0.86589,-0.872394 -1.29883,-1.946612 -1.29883,-3.222657 0,-1.289057 0.43294,-2.382806 1.29883,-3.28125 0.86588,-0.898429 1.9108,-1.347647 3.13477,-1.347656 m 0.0195,1.25 c -0.79428,8e-6 -1.47461,0.335294 -2.04102,1.00586 -0.56641,0.670578 -0.84961,1.461593 -0.84961,2.373046 0,0.911462 0.2832,1.689456 0.84961,2.333985 0.56641,0.644532 1.24674,0.966798 2.04102,0.966797 0.79426,1e-6 1.47135,-0.322265 2.03125,-0.966797 0.55989,-0.644529 0.83983,-1.422523 0.83984,-2.333985 -10e-6,-0.911453 -0.28321,-1.702468 -0.84961,-2.373046 -0.56641,-0.670566 -1.24024,-1.005852 -2.02148,-1.00586" />
      <path
         inkscape:connector-curvature="0"
         id="path3052-2-3-1-62-6"
         style="font-size:20px;font-variant:normal;font-stretch:normal;fill:#ffffff;font-family:PakType Naqsh;-inkscape-font-specification:PakType Naqsh"
         d="m 117.11874,52.026105 -0.98613,0.805474 c -0.50916,-0.665968 -1.07838,-1.051548 -1.70766,-1.156742 -0.50087,-0.08372 -0.92955,-0.02666 -1.28606,0.171172 -0.3565,0.197844 -0.57125,0.515088 -0.64423,0.951732 -0.0688,0.648585 0.51637,1.215047 1.75556,1.69941 1.72069,0.762878 2.48335,1.728654 2.28801,2.897334 l -0.006,0.03852 c -0.1374,0.82193 -0.52245,1.407739 -1.15516,1.757429 -0.63272,0.349689 -1.50774,0.431151 -2.62505,0.244388 -0.53938,-0.09016 -1.06481,-0.303403 -1.57625,-0.639721 -0.51145,-0.336319 -0.90513,-0.745362 -1.18103,-1.227132 l 1.21086,-0.728302 c 0.39563,0.792215 0.99157,1.254869 1.78782,1.387965 0.66782,0.11163 1.14892,0.116138 1.4433,0.01353 0.29438,-0.10261 0.48341,-0.364744 0.56711,-0.786406 0.0794,-0.475177 0.006,-0.827342 -0.21946,-1.056497 -0.22572,-0.22915 -0.65854,-0.483018 -1.29845,-0.761604 -0.89458,-0.413559 -1.53174,-0.8468 -1.91148,-1.299724 -0.37975,-0.452916 -0.51916,-1.020779 -0.41822,-1.703591 0.13524,-0.80908 0.52297,-1.410943 1.16321,-1.805589 0.64022,-0.394632 1.4291,-0.513594 2.36661,-0.356893 0.92467,0.154572 1.73571,0.672984 2.43314,1.555239" />
    </g>
  </g>
</svg>
